<svg width="44" height="44" viewBox="0 0 44 44" fill="none" xmlns="http://www.w3.org/2000/svg">
  <mask id="mask0_2032_1477" style="mask-type:luminance" maskUnits="userSpaceOnUse" x="10" y="10" width="24"
        height="24">
    <path d="M10 10H34V34H10V10Z" fill="white"/>
  </mask>
  <g mask="url(#mask0_2032_1477)">
    <path
      d="M11 12C11.5523 12 12 11.5523 12 11C12 10.4477 11.5523 10 11 10C10.4477 10 10 10.4477 10 11C10 11.5523 10.4477 12 11 12Z"
      fill="#989898" fill-opacity="0.3"/>
    <path
      d="M33 12C33.5523 12 34 11.5523 34 11C34 10.4477 33.5523 10 33 10C32.4477 10 32 10.4477 32 11C32 11.5523 32.4477 12 33 12Z"
      fill="#989898" fill-opacity="0.3"/>
    <path
      d="M11 34C11.5523 34 12 33.5523 12 33C12 32.4477 11.5523 32 11 32C10.4477 32 10 32.4477 10 33C10 33.5523 10.4477 34 11 34Z"
      fill="#989898" fill-opacity="0.3"/>
    <path
      d="M33 34C33.5523 34 34 33.5523 34 33C34 32.4477 33.5523 32 33 32C32.4477 32 32 32.4477 32 33C32 33.5523 32.4477 34 33 34Z"
      fill="#989898" fill-opacity="0.3"/>
  </g>
</svg>
