<svg width="182" height="36" viewBox="0 0 182 36" fill="none" xmlns="http://www.w3.org/2000/svg">
    <path d="M143.876 24.7289C144.1 23.1424 144.572 21.7058 145.289 20.4188C146.007 19.1319 146.903 18.0355 147.976 17.1295C149.048 16.2253 150.276 15.5301 151.657 15.0438C153.038 14.5594 154.503 14.3153 156.052 14.3153C157.602 14.3153 158.992 14.5575 160.224 15.0438C161.455 15.5301 162.481 16.2235 163.302 17.1295C164.123 18.0355 164.711 19.1301 165.066 20.4188C165.421 21.7058 165.486 23.1443 165.262 24.7289C165.038 26.3153 164.571 27.752 163.862 29.0389C163.152 30.3277 162.257 31.4223 161.176 32.3283C160.094 33.2343 158.866 33.9277 157.494 34.414C156.122 34.8984 154.664 35.1406 153.114 35.1406C151.565 35.1406 150.171 34.8984 148.93 34.414C147.689 33.9277 146.657 33.2343 145.836 32.3283C145.015 31.4223 144.428 30.3277 144.072 29.0389C143.717 27.752 143.653 26.3153 143.876 24.7289ZM148.412 24.7289C148.281 25.6626 148.309 26.515 148.495 27.2897C148.682 28.0645 149.004 28.7357 149.46 29.3052C149.917 29.8747 150.5 30.3166 151.21 30.6346C151.918 30.9526 152.739 31.1098 153.673 31.1098C154.606 31.1098 155.473 30.9508 156.276 30.6346C157.078 30.3166 157.788 29.8747 158.404 29.3052C159.02 28.7357 159.528 28.0645 159.93 27.2897C160.331 26.515 160.597 25.6626 160.726 24.7289C160.858 23.8155 160.834 22.9649 160.656 22.1809C160.479 21.397 160.157 20.7202 159.691 20.1507C159.225 19.5812 158.637 19.1393 157.927 18.8213C157.217 18.5033 156.396 18.3461 155.464 18.3461C154.532 18.3461 153.663 18.5051 152.861 18.8213C152.058 19.1393 151.35 19.5812 150.734 20.1507C150.119 20.7202 149.61 21.397 149.209 22.1809C148.808 22.9649 148.542 23.8136 148.41 24.7289H148.412Z" fill="black"/>
    <path d="M178.053 19.6626C177.756 19.2151 177.316 18.8842 176.739 18.6678C176.16 18.4533 175.6 18.3461 175.06 18.3461C174.742 18.3461 174.407 18.3831 174.052 18.4589C173.697 18.5347 173.366 18.6512 173.057 18.8084C172.751 18.9674 172.484 19.1763 172.259 19.4389C172.035 19.6996 171.894 20.0176 171.839 20.3911C171.783 20.8386 171.863 21.2084 172.077 21.4968C172.292 21.7852 172.599 22.0293 173.002 22.2235C173.403 22.4195 173.871 22.5914 174.402 22.7412C174.934 22.891 175.47 23.0592 176.01 23.2441C176.552 23.4309 177.079 23.6546 177.591 23.9153C178.105 24.176 178.547 24.5088 178.921 24.9082C179.294 25.3095 179.568 25.8142 179.747 26.4207C179.925 27.0272 179.947 27.7594 179.817 28.6173C179.668 29.7193 179.327 30.679 178.795 31.4999C178.264 32.3209 177.61 33.0032 176.837 33.5431C176.062 34.0848 175.195 34.4861 174.233 34.7468C173.272 35.0075 172.277 35.1388 171.253 35.1388C169.966 35.1388 168.799 34.9428 167.755 34.5508C166.71 34.1588 165.767 33.5246 164.927 32.6481L168.538 29.233C168.912 29.8303 169.409 30.2925 170.036 30.6179C170.661 30.9452 171.338 31.1079 172.066 31.1079C172.42 31.1079 172.784 31.0654 173.157 30.9822C173.531 30.899 173.875 30.7733 174.193 30.605C174.511 30.4367 174.775 30.2223 174.99 29.9615C175.204 29.7008 175.339 29.3921 175.396 29.037C175.489 28.4398 175.326 27.9702 174.906 27.6244C174.487 27.2786 173.951 26.9847 173.298 26.7424C172.645 26.5002 171.935 26.258 171.171 26.0158C170.406 25.7736 169.707 25.4463 169.073 25.0358C168.439 24.6253 167.939 24.0836 167.575 23.4124C167.211 22.7412 167.104 21.8537 167.253 20.7535C167.403 19.6903 167.743 18.7566 168.276 17.9541C168.808 17.1517 169.467 16.4805 170.249 15.9387C171.033 15.3969 171.9 14.992 172.852 14.7221C173.804 14.4521 174.764 14.3153 175.735 14.3153C176.855 14.3153 177.913 14.4743 178.911 14.7905C179.91 15.1085 180.773 15.6392 181.5 16.3862L178.057 19.6607L178.053 19.6626Z" fill="black"/>
    <path d="M17.5082 4.20864L0 34.5896H2.96025L5.56365 29.9745L6.10171 29.026L7.51065 26.5261H7.51805L8.97136 23.9486L18.4105 7.29647L21.883 20.1378C21.883 20.1378 21.8904 20.1378 21.883 20.1452C22.3304 21.1584 25.642 33.972 25.8047 34.5896H28.9665L20.4241 4.20864H17.5082Z" fill="black"/>
    <path d="M49.3462 31.1172H49.2611C48.7749 31.8032 48.1943 32.3985 47.5231 32.8978C46.85 33.3989 46.1345 33.813 45.3782 34.1422C44.6201 34.4713 43.8473 34.7135 43.0614 34.8707C42.2738 35.0278 41.5101 35.1073 40.765 35.1073C39.2488 35.1073 37.8824 34.8503 36.6676 34.3345C35.4509 33.8204 34.4506 33.0975 33.6629 32.1674C32.8753 31.2374 32.3113 30.1372 31.9674 28.8632C31.6235 27.5911 31.5662 26.197 31.7955 24.679C31.9951 23.1628 32.4463 21.7686 33.1471 20.4947C33.8478 19.2225 34.7206 18.1205 35.7653 17.1905C36.81 16.2623 38.01 15.5393 39.369 15.0235C40.728 14.5094 42.1647 14.2506 43.6809 14.2506C44.4242 14.2506 45.1674 14.3301 45.9126 14.4872C46.6559 14.6444 47.3641 14.8885 48.0371 15.2176C48.7083 15.5467 49.3037 15.9628 49.8177 16.462C50.3317 16.9631 50.7459 17.5566 51.0621 18.2426H51.1471L53.4214 2.1507H55.9952L51.4467 34.5915H48.871L49.3425 31.1153L49.3462 31.1172ZM50.5055 24.679C50.6775 23.564 50.6202 22.5119 50.3336 21.5246C50.047 20.5372 49.5829 19.6793 48.9394 18.9507C48.296 18.2204 47.5027 17.6416 46.5579 17.2127C45.6131 16.7837 44.5554 16.5692 43.3832 16.5692C42.2109 16.5692 41.0664 16.7837 40.0365 17.2127C39.0066 17.6416 38.0987 18.2222 37.311 18.9507C36.5234 19.6793 35.8799 20.539 35.3807 21.5246C34.8796 22.5119 34.5431 23.5622 34.3711 24.679C34.1992 25.7939 34.2287 26.846 34.4562 27.8334C34.6854 28.8207 35.0848 29.6787 35.658 30.4072C36.2294 31.1375 36.9727 31.7163 37.8898 32.1452C38.805 32.5742 39.8645 32.7887 41.0645 32.7887C42.2645 32.7887 43.361 32.5742 44.4334 32.1452C45.5058 31.7163 46.4636 31.1375 47.3086 30.4072C48.1517 29.6768 48.8544 28.8189 49.4109 27.8334C49.9693 26.846 50.3336 25.7958 50.5055 24.679Z" fill="black"/>
    <path d="M56.6405 14.7664H59.5582L63.8073 31.8032L72.603 14.7664H75.2212L64.6652 34.5914H62.0045L56.6405 14.7664Z" fill="black"/>
    <path d="M78.6548 14.7664H81.2286L78.4828 34.5914H75.9071L78.6548 14.7664Z" fill="black"/>
    <path d="M85.4332 29.5289C85.8344 30.5884 86.5204 31.3964 87.493 31.9529C88.4656 32.5095 89.538 32.7887 90.7121 32.7887C91.2539 32.7887 91.8122 32.7036 92.3854 32.5317C92.9586 32.3597 93.4801 32.1175 93.9516 31.8032C94.423 31.4888 94.8243 31.1098 95.1534 30.666C95.4825 30.2223 95.6896 29.7156 95.7765 29.1424C95.8616 28.4565 95.7691 27.9055 95.4973 27.4894C95.2255 27.0753 94.8317 26.7387 94.3176 26.4817C93.8036 26.2229 93.2083 26.0102 92.5371 25.8383C91.8659 25.6663 91.1706 25.5017 90.4569 25.3446C89.7414 25.1874 89.048 24.9951 88.375 24.7659C87.7019 24.5366 87.1158 24.2222 86.6165 23.821C86.1155 23.4216 85.7364 22.9131 85.4794 22.2974C85.2224 21.6817 85.1632 20.9033 85.3075 19.9584C85.4498 18.9859 85.7716 18.1427 86.2726 17.4272C86.7737 16.7116 87.3802 16.1181 88.0957 15.6466C88.8095 15.1751 89.5824 14.8238 90.4126 14.5945C91.2409 14.3671 92.0711 14.2524 92.9013 14.2524C94.5321 14.2524 95.8967 14.5538 96.9987 15.1529C98.0989 15.7538 98.8939 16.6986 99.3802 17.9856L96.8489 19.3594C96.4773 18.4441 95.9688 17.7489 95.3254 17.2774C94.6819 16.8059 93.774 16.5692 92.5999 16.5692C92.1414 16.5692 91.6551 16.6413 91.1411 16.7837C90.6252 16.9279 90.1389 17.1276 89.6822 17.3846C89.2236 17.6416 88.8391 17.9708 88.5247 18.372C88.2104 18.7732 88.0089 19.2299 87.9238 19.7458C87.8092 20.6333 88.0089 21.2916 88.5247 21.7187C89.0387 22.1477 89.7192 22.4842 90.5623 22.7283C91.4055 22.9723 92.3207 23.1794 93.3081 23.3495C94.2955 23.5215 95.1959 23.8007 96.0113 24.1871C96.8267 24.5736 97.4702 25.132 97.9417 25.8605C98.4132 26.5908 98.563 27.6281 98.3929 28.9705C98.2486 30.0004 97.9269 30.8953 97.4277 31.6534C96.9266 32.4115 96.3127 33.0475 95.5824 33.5634C94.852 34.0774 94.0366 34.4639 93.1361 34.7209C92.2357 34.9779 91.313 35.1073 90.3682 35.1073C88.6523 35.1073 87.1287 34.7782 85.7974 34.12C84.4662 33.4617 83.5158 32.4466 82.9444 31.0728L85.4332 29.527V29.5289Z" fill="black"/>
    <path d="M102.169 24.6789C102.368 23.1628 102.819 21.7686 103.52 20.4947C104.221 19.2225 105.094 18.1205 106.138 17.1905C107.181 16.2623 108.383 15.5393 109.742 15.0235C111.101 14.5094 112.538 14.2506 114.056 14.2506C115.574 14.2506 116.931 14.5076 118.133 15.0235C119.335 15.5393 120.335 16.2623 121.137 17.1905C121.938 18.1205 122.504 19.2225 122.833 20.4947C123.162 21.7686 123.225 23.1628 123.025 24.6789C122.796 26.1951 122.339 27.5893 121.651 28.8632C120.965 30.1372 120.093 31.2374 119.033 32.1674C117.976 33.0975 116.774 33.8204 115.43 34.3344C114.083 34.8485 112.654 35.1073 111.138 35.1073C109.622 35.1073 108.255 34.8503 107.041 34.3344C105.824 33.8204 104.824 33.0975 104.036 32.1674C103.248 31.2374 102.684 30.1372 102.342 28.8632C101.998 27.5911 101.941 26.197 102.17 24.6789H102.169ZM104.744 24.6789C104.572 25.7939 104.602 26.846 104.829 27.8333C105.059 28.8207 105.458 29.6786 106.031 30.4072C106.602 31.1375 107.346 31.7163 108.263 32.1452C109.178 32.5742 110.238 32.7887 111.438 32.7887C112.638 32.7887 113.754 32.5742 114.784 32.1452C115.814 31.7163 116.722 31.1375 117.51 30.4072C118.296 29.6768 118.939 28.8189 119.44 27.8333C119.941 26.846 120.278 25.7957 120.45 24.6789C120.622 23.564 120.592 22.5119 120.365 21.5245C120.135 20.5372 119.736 19.6792 119.163 18.9507C118.59 18.2204 117.846 17.6416 116.931 17.2127C116.016 16.7837 114.956 16.5692 113.756 16.5692C112.556 16.5692 111.439 16.7837 110.41 17.2127C109.38 17.6416 108.472 18.2222 107.684 18.9507C106.896 19.6792 106.253 20.539 105.754 21.5245C105.253 22.5119 104.916 23.5621 104.744 24.6789Z" fill="black"/>
    <path d="M128.3 20.3449C128.358 19.9732 128.415 19.5239 128.472 18.9933C128.53 18.4644 128.58 17.9282 128.622 17.3846C128.665 16.841 128.707 16.3344 128.752 15.861C128.794 15.3896 128.831 15.0235 128.859 14.7664H131.433C131.375 15.5116 131.303 16.2253 131.218 16.9131C131.133 17.5991 131.104 18.0429 131.133 18.2426C131.962 17.0703 132.941 16.1125 134.073 15.3674C135.203 14.6241 136.512 14.2524 137.999 14.2524C138.457 14.2524 138.943 14.3245 139.457 14.4669L138.814 16.9982C138.5 16.8836 138.185 16.8262 137.869 16.8262C136.754 16.8262 135.767 17.0056 134.909 17.3624C134.051 17.7211 133.306 18.213 132.677 18.8435C132.048 19.4722 131.547 20.2099 131.176 21.0531C130.804 21.8981 130.547 22.8059 130.403 23.7785L128.901 34.5915H126.328L128.3 20.3449Z" fill="black"/>
    <path d="M83.0165 12.298C83.5713 10.5341 84.089 8.88662 84.6159 7.20772C84.2276 7.10418 83.8652 7.21882 83.4954 7.22066C82.5062 7.22436 81.5207 7.26504 80.5315 7.25949C80.256 7.25949 80.097 7.31866 79.9638 7.54979C79.7438 7.93253 79.4683 8.28384 79.2205 8.64994C79.093 8.83854 78.8785 8.91435 78.688 8.82929C78.5087 8.74979 78.5845 8.52976 78.6048 8.37075C78.6307 8.15626 78.6455 7.93623 78.6954 7.72729C78.8286 7.15965 78.7084 6.62898 78.3626 6.11681C78.2258 5.91157 78.1222 5.68784 77.9947 5.47705C77.9133 5.34022 77.7802 5.16272 77.9004 5.06842C78.0316 4.96488 78.2591 4.95748 78.4384 5.09061C78.8415 5.39015 79.2409 5.69524 79.6403 6.00032C79.7937 6.11681 79.9176 6.26288 80.1506 6.19817C81.4689 5.83021 82.8279 5.58799 84.2572 5.34577C83.0554 3.83514 81.8923 2.37257 80.6979 0.871182C81.2933 0.813863 81.7241 0.963637 82.166 1.35563C83.5195 2.55748 84.9192 3.7094 86.293 4.88907C86.4779 5.04623 86.6572 5.06842 86.8736 5.05733C87.8406 5.00556 88.8095 4.98337 89.7894 5.09431C90.1149 5.13129 90.3793 5.22374 90.4421 5.58984C90.5013 5.92821 90.2924 6.06134 90.0187 6.16118C89.1441 6.47921 88.2326 6.68445 87.3025 6.83607C87.0067 6.88414 86.8403 7.01358 86.6942 7.26504C85.8344 8.75903 84.9395 10.2308 84.0723 11.7211C83.8615 12.0817 83.464 12.0817 83.0184 12.298H83.0165Z" fill="black"/>
    <path d="M6.08506 26.7757C23.7671 13.2891 57.1231 8.38553 79.0948 6.71219L79.1355 7.26504C57.0362 9.0105 34.3841 12.0724 14.2392 21.8315C11.5803 23.1831 8.98245 24.6882 6.61573 26.5095L6.38091 26.6925C6.3014 26.7535 6.22929 26.8164 6.12759 26.8793L6.08506 26.7757Z" fill="black"/>
</svg>
